%TF.GenerationSoftware,KiCad,Pcbnew,7.0.10-1.fc38*%
%TF.CreationDate,2024-02-18T19:40:33+00:00*%
%TF.ProjectId,usbc_power_supply_2,75736263-5f70-46f7-9765-725f73757070,rev?*%
%TF.SameCoordinates,Original*%
%TF.FileFunction,Copper,L2,Bot*%
%TF.FilePolarity,Positive*%
%FSLAX46Y46*%
G04 Gerber Fmt 4.6, Leading zero omitted, Abs format (unit mm)*
G04 Created by KiCad (PCBNEW 7.0.10-1.fc38) date 2024-02-18 19:40:33*
%MOMM*%
%LPD*%
G01*
G04 APERTURE LIST*
%TA.AperFunction,ComponentPad*%
%ADD10C,1.320800*%
%TD*%
%TA.AperFunction,ComponentPad*%
%ADD11O,1.117600X1.701800*%
%TD*%
%TA.AperFunction,ComponentPad*%
%ADD12C,0.762000*%
%TD*%
%TA.AperFunction,ViaPad*%
%ADD13C,0.800000*%
%TD*%
%TA.AperFunction,Conductor*%
%ADD14C,0.300000*%
%TD*%
%TA.AperFunction,Conductor*%
%ADD15C,0.250000*%
%TD*%
G04 APERTURE END LIST*
D10*
%TO.P,J2,1,1*%
%TO.N,/Out+*%
X118406601Y-122845100D03*
%TO.P,J2,2,2*%
%TO.N,GND*%
X116406599Y-122845100D03*
%TD*%
%TO.P,J3,2,2*%
%TO.N,GND*%
X109526599Y-122875100D03*
%TO.P,J3,1,1*%
%TO.N,+BATT*%
X111526601Y-122875100D03*
%TD*%
D11*
%TO.P,J1,10,PAD*%
%TO.N,GND*%
X108250000Y-101950000D03*
%TO.P,J1,9,PAD*%
X108250000Y-105750000D03*
%TO.P,J1,7,PAD*%
X116890004Y-105750000D03*
%TO.P,J1,8,PAD*%
X116890004Y-101950000D03*
D12*
%TO.P,J1,13*%
%TO.N,N/C*%
X116890004Y-101950000D03*
%TD*%
D13*
%TO.N,GND*%
X108550000Y-121020000D03*
X116420000Y-118590000D03*
X102720000Y-123630000D03*
X101270000Y-123800000D03*
%TO.N,VBUS*%
X107400000Y-113920000D03*
X112530000Y-103710000D03*
%TO.N,GND*%
X102280000Y-115660000D03*
X103230000Y-114210000D03*
X113190000Y-115630000D03*
X123770000Y-108800000D03*
%TO.N,Net-(U2-PG)*%
X101150000Y-113330000D03*
X104240000Y-119350000D03*
%TO.N,GND*%
X110640000Y-111660000D03*
X114430000Y-111600000D03*
X109830000Y-104110000D03*
X115310000Y-104010000D03*
%TD*%
D14*
%TO.N,VBUS*%
X112530000Y-103710000D02*
X107400000Y-108840000D01*
X107400000Y-108840000D02*
X107400000Y-113920000D01*
D15*
%TO.N,Net-(U2-PG)*%
X101150000Y-113330000D02*
X101150000Y-116260000D01*
X101150000Y-116260000D02*
X104240000Y-119350000D01*
%TD*%
%TA.AperFunction,Conductor*%
%TO.N,GND*%
G36*
X124706203Y-100189798D02*
G01*
X124773209Y-100209592D01*
X124818878Y-100262470D01*
X124830000Y-100313798D01*
X124830000Y-124646250D01*
X124810315Y-124713289D01*
X124757511Y-124759044D01*
X124706251Y-124770250D01*
X100214857Y-124819747D01*
X100147777Y-124800198D01*
X100101916Y-124747486D01*
X100090607Y-124695144D01*
X100093814Y-124036000D01*
X100099461Y-122875100D01*
X108361228Y-122875100D01*
X108381070Y-123089231D01*
X108439924Y-123296084D01*
X108535781Y-123488589D01*
X108546009Y-123502134D01*
X108546010Y-123502135D01*
X109123051Y-122925094D01*
X109135272Y-123002250D01*
X109193716Y-123116954D01*
X109284745Y-123207983D01*
X109399449Y-123266427D01*
X109476604Y-123278647D01*
X108902035Y-123853214D01*
X109007144Y-123918295D01*
X109007150Y-123918297D01*
X109207682Y-123995983D01*
X109419074Y-124035500D01*
X109634124Y-124035500D01*
X109845515Y-123995983D01*
X109845516Y-123995983D01*
X110046047Y-123918297D01*
X110046048Y-123918297D01*
X110151161Y-123853214D01*
X109576594Y-123278647D01*
X109653749Y-123266427D01*
X109768453Y-123207983D01*
X109859482Y-123116954D01*
X109917926Y-123002250D01*
X109930146Y-122925094D01*
X110518580Y-123513528D01*
X110544683Y-123519264D01*
X110583981Y-123553244D01*
X110665012Y-123660546D01*
X110665015Y-123660549D01*
X110824003Y-123805485D01*
X110824005Y-123805486D01*
X110824006Y-123805487D01*
X111006927Y-123918747D01*
X111207545Y-123996467D01*
X111419028Y-124036000D01*
X111419030Y-124036000D01*
X111634172Y-124036000D01*
X111634174Y-124036000D01*
X111845657Y-123996467D01*
X112046275Y-123918747D01*
X112229196Y-123805487D01*
X112388192Y-123660544D01*
X112517846Y-123488853D01*
X112613745Y-123296262D01*
X112672623Y-123089329D01*
X112692474Y-122875100D01*
X112689694Y-122845100D01*
X115241228Y-122845100D01*
X115261070Y-123059231D01*
X115319924Y-123266084D01*
X115415781Y-123458589D01*
X115426009Y-123472134D01*
X115426010Y-123472135D01*
X116003051Y-122895094D01*
X116015272Y-122972250D01*
X116073716Y-123086954D01*
X116164745Y-123177983D01*
X116279449Y-123236427D01*
X116356604Y-123248647D01*
X115782035Y-123823214D01*
X115887144Y-123888295D01*
X115887150Y-123888297D01*
X116087682Y-123965983D01*
X116299074Y-124005500D01*
X116514124Y-124005500D01*
X116725515Y-123965983D01*
X116725516Y-123965983D01*
X116926047Y-123888297D01*
X116926048Y-123888297D01*
X117031161Y-123823214D01*
X116456594Y-123248647D01*
X116533749Y-123236427D01*
X116648453Y-123177983D01*
X116739482Y-123086954D01*
X116797926Y-122972250D01*
X116810146Y-122895094D01*
X117398580Y-123483528D01*
X117424683Y-123489264D01*
X117463981Y-123523244D01*
X117545012Y-123630546D01*
X117545015Y-123630549D01*
X117704003Y-123775485D01*
X117704005Y-123775486D01*
X117704006Y-123775487D01*
X117886927Y-123888747D01*
X118087545Y-123966467D01*
X118299028Y-124006000D01*
X118299030Y-124006000D01*
X118514172Y-124006000D01*
X118514174Y-124006000D01*
X118725657Y-123966467D01*
X118926275Y-123888747D01*
X119109196Y-123775487D01*
X119268192Y-123630544D01*
X119397846Y-123458853D01*
X119493745Y-123266262D01*
X119552623Y-123059329D01*
X119572474Y-122845100D01*
X119552623Y-122630871D01*
X119493745Y-122423938D01*
X119397846Y-122231347D01*
X119268192Y-122059656D01*
X119268188Y-122059652D01*
X119268186Y-122059650D01*
X119109198Y-121914714D01*
X119032111Y-121866984D01*
X118926275Y-121801453D01*
X118725657Y-121723733D01*
X118514174Y-121684200D01*
X118299028Y-121684200D01*
X118087545Y-121723733D01*
X117960676Y-121772882D01*
X117886929Y-121801452D01*
X117886928Y-121801452D01*
X117704003Y-121914714D01*
X117545015Y-122059650D01*
X117545012Y-122059653D01*
X117463983Y-122166954D01*
X117407874Y-122208590D01*
X117394793Y-122210456D01*
X116810146Y-122795104D01*
X116797926Y-122717950D01*
X116739482Y-122603246D01*
X116648453Y-122512217D01*
X116533749Y-122453773D01*
X116456594Y-122441552D01*
X117031161Y-121866984D01*
X116926046Y-121801901D01*
X116725515Y-121724216D01*
X116514124Y-121684700D01*
X116299074Y-121684700D01*
X116087682Y-121724216D01*
X116087681Y-121724216D01*
X115887150Y-121801902D01*
X115887147Y-121801903D01*
X115782035Y-121866984D01*
X116356604Y-122441552D01*
X116279449Y-122453773D01*
X116164745Y-122512217D01*
X116073716Y-122603246D01*
X116015272Y-122717950D01*
X116003051Y-122795105D01*
X115426010Y-122218064D01*
X115415778Y-122231615D01*
X115319924Y-122424115D01*
X115261070Y-122630968D01*
X115241228Y-122845100D01*
X112689694Y-122845100D01*
X112672623Y-122660871D01*
X112613745Y-122453938D01*
X112606157Y-122438700D01*
X112517849Y-122261353D01*
X112517848Y-122261352D01*
X112517846Y-122261347D01*
X112388192Y-122089656D01*
X112388188Y-122089652D01*
X112388186Y-122089650D01*
X112229198Y-121944714D01*
X112103659Y-121866984D01*
X112046275Y-121831453D01*
X111845657Y-121753733D01*
X111634174Y-121714200D01*
X111419028Y-121714200D01*
X111207545Y-121753733D01*
X111084368Y-121801452D01*
X111006929Y-121831452D01*
X111006928Y-121831452D01*
X110824003Y-121944714D01*
X110665015Y-122089650D01*
X110665012Y-122089653D01*
X110583983Y-122196954D01*
X110527874Y-122238590D01*
X110514793Y-122240456D01*
X109930146Y-122825104D01*
X109917926Y-122747950D01*
X109859482Y-122633246D01*
X109768453Y-122542217D01*
X109653749Y-122483773D01*
X109576594Y-122471552D01*
X110151161Y-121896984D01*
X110046046Y-121831901D01*
X109845515Y-121754216D01*
X109634124Y-121714700D01*
X109419074Y-121714700D01*
X109207682Y-121754216D01*
X109207681Y-121754216D01*
X109007150Y-121831902D01*
X109007147Y-121831903D01*
X108902035Y-121896984D01*
X109476604Y-122471552D01*
X109399449Y-122483773D01*
X109284745Y-122542217D01*
X109193716Y-122633246D01*
X109135272Y-122747950D01*
X109123051Y-122825105D01*
X108546010Y-122248064D01*
X108535778Y-122261615D01*
X108439924Y-122454115D01*
X108381070Y-122660968D01*
X108361228Y-122875100D01*
X100099461Y-122875100D01*
X100143362Y-113849620D01*
X100163373Y-113782678D01*
X100216399Y-113737180D01*
X100285605Y-113727573D01*
X100349019Y-113756907D01*
X100374746Y-113788222D01*
X100410195Y-113849620D01*
X100417467Y-113862216D01*
X100492650Y-113945715D01*
X100522880Y-114008706D01*
X100524500Y-114028687D01*
X100524500Y-116177255D01*
X100522775Y-116192872D01*
X100523061Y-116192899D01*
X100522326Y-116200665D01*
X100524439Y-116267872D01*
X100524500Y-116271767D01*
X100524500Y-116299357D01*
X100525003Y-116303335D01*
X100525918Y-116314967D01*
X100527290Y-116358624D01*
X100527291Y-116358627D01*
X100532880Y-116377867D01*
X100536824Y-116396911D01*
X100539336Y-116416792D01*
X100555414Y-116457403D01*
X100559197Y-116468452D01*
X100571381Y-116510388D01*
X100581580Y-116527634D01*
X100590138Y-116545103D01*
X100597514Y-116563732D01*
X100623181Y-116599060D01*
X100629593Y-116608821D01*
X100651828Y-116646417D01*
X100651833Y-116646424D01*
X100665990Y-116660580D01*
X100678628Y-116675376D01*
X100690405Y-116691586D01*
X100690406Y-116691587D01*
X100724057Y-116719425D01*
X100732698Y-116727288D01*
X103301038Y-119295629D01*
X103334523Y-119356952D01*
X103336678Y-119370348D01*
X103344968Y-119449227D01*
X103354326Y-119538256D01*
X103354327Y-119538259D01*
X103412818Y-119718277D01*
X103412821Y-119718284D01*
X103507467Y-119882216D01*
X103634129Y-120022888D01*
X103787265Y-120134148D01*
X103787270Y-120134151D01*
X103960192Y-120211142D01*
X103960197Y-120211144D01*
X104145354Y-120250500D01*
X104145355Y-120250500D01*
X104334644Y-120250500D01*
X104334646Y-120250500D01*
X104519803Y-120211144D01*
X104692730Y-120134151D01*
X104845871Y-120022888D01*
X104972533Y-119882216D01*
X105067179Y-119718284D01*
X105125674Y-119538256D01*
X105145460Y-119350000D01*
X105125674Y-119161744D01*
X105067179Y-118981716D01*
X104972533Y-118817784D01*
X104845871Y-118677112D01*
X104845870Y-118677111D01*
X104692734Y-118565851D01*
X104692729Y-118565848D01*
X104519807Y-118488857D01*
X104519802Y-118488855D01*
X104374001Y-118457865D01*
X104334646Y-118449500D01*
X104334645Y-118449500D01*
X104275452Y-118449500D01*
X104208413Y-118429815D01*
X104187771Y-118413181D01*
X101811819Y-116037228D01*
X101778334Y-115975905D01*
X101775500Y-115949547D01*
X101775500Y-114028687D01*
X101795185Y-113961648D01*
X101807350Y-113945715D01*
X101825891Y-113925122D01*
X101830503Y-113920000D01*
X106494540Y-113920000D01*
X106514326Y-114108256D01*
X106514327Y-114108259D01*
X106572818Y-114288277D01*
X106572821Y-114288284D01*
X106667467Y-114452216D01*
X106794129Y-114592888D01*
X106947265Y-114704148D01*
X106947270Y-114704151D01*
X107120192Y-114781142D01*
X107120197Y-114781144D01*
X107305354Y-114820500D01*
X107305355Y-114820500D01*
X107494644Y-114820500D01*
X107494646Y-114820500D01*
X107679803Y-114781144D01*
X107852730Y-114704151D01*
X108005871Y-114592888D01*
X108132533Y-114452216D01*
X108227179Y-114288284D01*
X108285674Y-114108256D01*
X108305460Y-113920000D01*
X108285674Y-113731744D01*
X108227179Y-113551716D01*
X108132533Y-113387784D01*
X108082350Y-113332050D01*
X108052120Y-113269058D01*
X108050500Y-113249078D01*
X108050500Y-109160808D01*
X108070185Y-109093769D01*
X108086819Y-109073127D01*
X111065835Y-106094111D01*
X115831204Y-106094111D01*
X115846523Y-106249659D01*
X115907068Y-106449250D01*
X116005380Y-106633178D01*
X116005384Y-106633185D01*
X116137696Y-106794407D01*
X116298918Y-106926719D01*
X116298925Y-106926723D01*
X116482850Y-107025033D01*
X116482853Y-107025034D01*
X116640004Y-107072705D01*
X116640004Y-106712256D01*
X116659689Y-106645217D01*
X116712493Y-106599462D01*
X116781651Y-106589518D01*
X116797451Y-106592852D01*
X116813680Y-106597400D01*
X116813682Y-106597400D01*
X116927989Y-106597400D01*
X116999119Y-106587623D01*
X117068214Y-106597995D01*
X117120733Y-106644077D01*
X117140004Y-106710468D01*
X117140004Y-107072705D01*
X117297154Y-107025034D01*
X117297157Y-107025033D01*
X117481082Y-106926723D01*
X117481089Y-106926719D01*
X117642311Y-106794407D01*
X117774623Y-106633185D01*
X117774627Y-106633178D01*
X117872939Y-106449250D01*
X117933484Y-106249659D01*
X117948804Y-106094111D01*
X117948804Y-106000000D01*
X117549300Y-106000000D01*
X117482261Y-105980315D01*
X117436506Y-105927511D01*
X117427893Y-105901228D01*
X117418161Y-105854393D01*
X117395639Y-105810928D01*
X117382274Y-105742351D01*
X117388895Y-105712361D01*
X117419204Y-105627078D01*
X117435058Y-105582474D01*
X117476057Y-105525898D01*
X117541134Y-105500468D01*
X117551898Y-105500000D01*
X117948804Y-105500000D01*
X117948804Y-105405888D01*
X117933484Y-105250340D01*
X117872939Y-105050749D01*
X117774627Y-104866821D01*
X117774623Y-104866814D01*
X117642311Y-104705592D01*
X117481089Y-104573280D01*
X117481082Y-104573276D01*
X117297156Y-104474965D01*
X117140004Y-104427293D01*
X117140004Y-104787743D01*
X117120319Y-104854782D01*
X117067515Y-104900537D01*
X116998357Y-104910481D01*
X116982551Y-104907145D01*
X116966330Y-104902600D01*
X116966328Y-104902600D01*
X116852019Y-104902600D01*
X116852017Y-104902600D01*
X116780888Y-104912376D01*
X116711793Y-104902003D01*
X116659274Y-104855921D01*
X116640004Y-104789531D01*
X116640004Y-104427293D01*
X116640003Y-104427293D01*
X116482851Y-104474965D01*
X116298925Y-104573276D01*
X116298918Y-104573280D01*
X116137696Y-104705592D01*
X116005384Y-104866814D01*
X116005380Y-104866821D01*
X115907068Y-105050749D01*
X115846523Y-105250340D01*
X115831204Y-105405888D01*
X115831204Y-105500000D01*
X116230708Y-105500000D01*
X116297747Y-105519685D01*
X116343502Y-105572489D01*
X116352115Y-105598772D01*
X116361847Y-105645607D01*
X116361848Y-105645610D01*
X116384368Y-105689072D01*
X116397733Y-105757651D01*
X116391110Y-105787644D01*
X116344950Y-105917525D01*
X116303952Y-105974102D01*
X116238874Y-105999532D01*
X116228110Y-106000000D01*
X115831204Y-106000000D01*
X115831204Y-106094111D01*
X111065835Y-106094111D01*
X112513127Y-104646819D01*
X112574450Y-104613334D01*
X112600808Y-104610500D01*
X112624644Y-104610500D01*
X112624646Y-104610500D01*
X112809803Y-104571144D01*
X112982730Y-104494151D01*
X113135871Y-104382888D01*
X113262533Y-104242216D01*
X113357179Y-104078284D01*
X113415674Y-103898256D01*
X113435460Y-103710000D01*
X113415674Y-103521744D01*
X113357179Y-103341716D01*
X113262533Y-103177784D01*
X113135871Y-103037112D01*
X113135870Y-103037111D01*
X112982734Y-102925851D01*
X112982729Y-102925848D01*
X112809807Y-102848857D01*
X112809802Y-102848855D01*
X112664001Y-102817865D01*
X112624646Y-102809500D01*
X112435354Y-102809500D01*
X112402897Y-102816398D01*
X112250197Y-102848855D01*
X112250192Y-102848857D01*
X112077270Y-102925848D01*
X112077265Y-102925851D01*
X111924129Y-103037111D01*
X111797466Y-103177785D01*
X111702821Y-103341715D01*
X111702818Y-103341722D01*
X111644327Y-103521739D01*
X111644326Y-103521741D01*
X111630831Y-103650142D01*
X111604246Y-103714757D01*
X111595191Y-103724861D01*
X109356372Y-105963681D01*
X109295049Y-105997166D01*
X109268691Y-106000000D01*
X108909296Y-106000000D01*
X108842257Y-105980315D01*
X108796502Y-105927511D01*
X108787889Y-105901228D01*
X108778157Y-105854393D01*
X108755635Y-105810928D01*
X108742270Y-105742351D01*
X108748891Y-105712361D01*
X108779200Y-105627078D01*
X108795054Y-105582474D01*
X108836053Y-105525898D01*
X108901130Y-105500468D01*
X108911894Y-105500000D01*
X109308800Y-105500000D01*
X109308800Y-105405888D01*
X109293480Y-105250340D01*
X109232935Y-105050749D01*
X109134623Y-104866821D01*
X109134619Y-104866814D01*
X109002307Y-104705592D01*
X108841085Y-104573280D01*
X108841078Y-104573276D01*
X108657152Y-104474965D01*
X108500000Y-104427293D01*
X108500000Y-104787743D01*
X108480315Y-104854782D01*
X108427511Y-104900537D01*
X108358353Y-104910481D01*
X108342547Y-104907145D01*
X108326326Y-104902600D01*
X108326324Y-104902600D01*
X108212015Y-104902600D01*
X108212013Y-104902600D01*
X108140884Y-104912376D01*
X108071789Y-104902003D01*
X108019270Y-104855921D01*
X108000000Y-104789531D01*
X108000000Y-104427293D01*
X107999999Y-104427293D01*
X107842847Y-104474965D01*
X107658921Y-104573276D01*
X107658914Y-104573280D01*
X107497692Y-104705592D01*
X107365380Y-104866814D01*
X107365376Y-104866821D01*
X107267064Y-105050749D01*
X107206519Y-105250340D01*
X107191200Y-105405888D01*
X107191200Y-105500000D01*
X107590704Y-105500000D01*
X107657743Y-105519685D01*
X107703498Y-105572489D01*
X107712111Y-105598772D01*
X107721843Y-105645607D01*
X107721844Y-105645610D01*
X107744364Y-105689072D01*
X107757729Y-105757651D01*
X107751106Y-105787644D01*
X107704946Y-105917525D01*
X107663948Y-105974102D01*
X107598870Y-105999532D01*
X107588106Y-106000000D01*
X107191200Y-106000000D01*
X107191200Y-106094111D01*
X107206519Y-106249659D01*
X107267064Y-106449250D01*
X107365376Y-106633178D01*
X107365380Y-106633185D01*
X107497692Y-106794407D01*
X107658914Y-106926719D01*
X107658921Y-106926723D01*
X107842849Y-107025034D01*
X107991804Y-107070219D01*
X108050242Y-107108516D01*
X108078699Y-107172328D01*
X108068139Y-107241395D01*
X108043490Y-107276561D01*
X107000483Y-108319569D01*
X106987910Y-108329643D01*
X106988065Y-108329830D01*
X106982058Y-108334799D01*
X106934133Y-108385833D01*
X106931427Y-108388625D01*
X106911090Y-108408963D01*
X106911077Y-108408978D01*
X106908373Y-108412463D01*
X106900806Y-108421322D01*
X106869552Y-108454607D01*
X106859322Y-108473213D01*
X106848646Y-108489464D01*
X106835640Y-108506232D01*
X106835636Y-108506238D01*
X106817508Y-108548130D01*
X106812369Y-108558619D01*
X106790372Y-108598630D01*
X106790372Y-108598631D01*
X106785091Y-108619199D01*
X106778791Y-108637601D01*
X106770364Y-108657073D01*
X106763223Y-108702162D01*
X106760854Y-108713600D01*
X106749500Y-108757817D01*
X106749500Y-108779044D01*
X106747973Y-108798444D01*
X106744653Y-108819403D01*
X106748950Y-108864858D01*
X106749500Y-108876528D01*
X106749500Y-113249078D01*
X106729815Y-113316117D01*
X106717650Y-113332050D01*
X106667466Y-113387785D01*
X106572821Y-113551715D01*
X106572818Y-113551722D01*
X106515681Y-113727573D01*
X106514326Y-113731744D01*
X106494540Y-113920000D01*
X101830503Y-113920000D01*
X101882533Y-113862216D01*
X101977179Y-113698284D01*
X102035674Y-113518256D01*
X102055460Y-113330000D01*
X102035674Y-113141744D01*
X101977179Y-112961716D01*
X101882533Y-112797784D01*
X101755871Y-112657112D01*
X101755870Y-112657111D01*
X101602734Y-112545851D01*
X101602729Y-112545848D01*
X101429807Y-112468857D01*
X101429802Y-112468855D01*
X101284001Y-112437865D01*
X101244646Y-112429500D01*
X101055354Y-112429500D01*
X101022897Y-112436398D01*
X100870197Y-112468855D01*
X100870192Y-112468857D01*
X100697270Y-112545848D01*
X100697265Y-112545851D01*
X100544129Y-112657111D01*
X100417465Y-112797785D01*
X100379852Y-112862934D01*
X100329285Y-112911150D01*
X100260678Y-112924372D01*
X100195813Y-112898404D01*
X100155285Y-112841490D01*
X100148466Y-112800331D01*
X100194920Y-103250000D01*
X101894341Y-103250000D01*
X101914936Y-103485403D01*
X101914938Y-103485413D01*
X101976094Y-103713655D01*
X101976096Y-103713659D01*
X101976097Y-103713663D01*
X101981319Y-103724861D01*
X102075964Y-103927828D01*
X102075965Y-103927830D01*
X102211505Y-104121402D01*
X102378597Y-104288494D01*
X102572169Y-104424034D01*
X102572171Y-104424035D01*
X102786337Y-104523903D01*
X103014592Y-104585063D01*
X103191032Y-104600499D01*
X103191033Y-104600500D01*
X103191034Y-104600500D01*
X103308967Y-104600500D01*
X103308967Y-104600499D01*
X103485408Y-104585063D01*
X103713663Y-104523903D01*
X103927829Y-104424035D01*
X104121401Y-104288495D01*
X104288495Y-104121401D01*
X104424035Y-103927830D01*
X104523903Y-103713663D01*
X104585063Y-103485408D01*
X104605659Y-103250000D01*
X104585063Y-103014592D01*
X104536454Y-102833178D01*
X104523905Y-102786344D01*
X104523904Y-102786343D01*
X104523903Y-102786337D01*
X104424035Y-102572171D01*
X104424034Y-102572169D01*
X104288494Y-102378597D01*
X104204008Y-102294111D01*
X107191200Y-102294111D01*
X107206519Y-102449659D01*
X107267064Y-102649250D01*
X107365376Y-102833178D01*
X107365380Y-102833185D01*
X107497692Y-102994407D01*
X107658914Y-103126719D01*
X107658921Y-103126723D01*
X107842846Y-103225033D01*
X107842849Y-103225034D01*
X108000000Y-103272705D01*
X108000000Y-102912256D01*
X108019685Y-102845217D01*
X108072489Y-102799462D01*
X108141647Y-102789518D01*
X108157447Y-102792852D01*
X108173676Y-102797400D01*
X108173678Y-102797400D01*
X108287985Y-102797400D01*
X108359115Y-102787623D01*
X108428210Y-102797995D01*
X108480729Y-102844077D01*
X108500000Y-102910468D01*
X108500000Y-103272705D01*
X108657150Y-103225034D01*
X108657153Y-103225033D01*
X108841078Y-103126723D01*
X108841085Y-103126719D01*
X109002307Y-102994407D01*
X109134619Y-102833185D01*
X109134623Y-102833178D01*
X109232935Y-102649250D01*
X109293480Y-102449659D01*
X109308800Y-102294111D01*
X115831204Y-102294111D01*
X115846523Y-102449659D01*
X115907068Y-102649250D01*
X116005380Y-102833178D01*
X116005384Y-102833185D01*
X116137696Y-102994407D01*
X116298918Y-103126719D01*
X116298925Y-103126723D01*
X116482850Y-103225033D01*
X116482853Y-103225034D01*
X116640004Y-103272705D01*
X116640004Y-102912256D01*
X116659689Y-102845217D01*
X116712493Y-102799462D01*
X116781651Y-102789518D01*
X116797451Y-102792852D01*
X116813680Y-102797400D01*
X116813682Y-102797400D01*
X116927989Y-102797400D01*
X116999119Y-102787623D01*
X117068214Y-102797995D01*
X117120733Y-102844077D01*
X117140004Y-102910468D01*
X117140004Y-103272705D01*
X117214852Y-103250000D01*
X120394341Y-103250000D01*
X120414936Y-103485403D01*
X120414938Y-103485413D01*
X120476094Y-103713655D01*
X120476096Y-103713659D01*
X120476097Y-103713663D01*
X120481319Y-103724861D01*
X120575964Y-103927828D01*
X120575965Y-103927830D01*
X120711505Y-104121402D01*
X120878597Y-104288494D01*
X121072169Y-104424034D01*
X121072171Y-104424035D01*
X121286337Y-104523903D01*
X121514592Y-104585063D01*
X121691032Y-104600499D01*
X121691033Y-104600500D01*
X121691034Y-104600500D01*
X121808967Y-104600500D01*
X121808967Y-104600499D01*
X121985408Y-104585063D01*
X122213663Y-104523903D01*
X122427829Y-104424035D01*
X122621401Y-104288495D01*
X122788495Y-104121401D01*
X122924035Y-103927830D01*
X123023903Y-103713663D01*
X123085063Y-103485408D01*
X123105659Y-103250000D01*
X123085063Y-103014592D01*
X123036454Y-102833178D01*
X123023905Y-102786344D01*
X123023904Y-102786343D01*
X123023903Y-102786337D01*
X122924035Y-102572171D01*
X122924034Y-102572169D01*
X122788494Y-102378597D01*
X122621402Y-102211505D01*
X122427830Y-102075965D01*
X122427828Y-102075964D01*
X122283659Y-102008737D01*
X122213663Y-101976097D01*
X122213659Y-101976096D01*
X122213655Y-101976094D01*
X121985413Y-101914938D01*
X121985403Y-101914936D01*
X121808967Y-101899500D01*
X121808966Y-101899500D01*
X121691034Y-101899500D01*
X121691033Y-101899500D01*
X121514596Y-101914936D01*
X121514586Y-101914938D01*
X121286344Y-101976094D01*
X121286335Y-101976098D01*
X121072171Y-102075964D01*
X121072169Y-102075965D01*
X120878597Y-102211505D01*
X120711506Y-102378597D01*
X120711501Y-102378604D01*
X120575967Y-102572165D01*
X120575965Y-102572169D01*
X120476098Y-102786335D01*
X120476094Y-102786344D01*
X120414938Y-103014586D01*
X120414936Y-103014596D01*
X120394341Y-103249999D01*
X120394341Y-103250000D01*
X117214852Y-103250000D01*
X117297154Y-103225034D01*
X117297157Y-103225033D01*
X117481082Y-103126723D01*
X117481089Y-103126719D01*
X117642311Y-102994407D01*
X117774623Y-102833185D01*
X117774627Y-102833178D01*
X117872939Y-102649250D01*
X117933484Y-102449659D01*
X117948804Y-102294111D01*
X117948804Y-102200000D01*
X117549300Y-102200000D01*
X117482261Y-102180315D01*
X117436506Y-102127511D01*
X117427893Y-102101228D01*
X117418161Y-102054393D01*
X117408405Y-102035564D01*
X117394504Y-101978518D01*
X117394504Y-101917959D01*
X117401664Y-101876433D01*
X117405931Y-101864429D01*
X117414749Y-101839615D01*
X117435058Y-101782474D01*
X117476057Y-101725898D01*
X117541134Y-101700468D01*
X117551898Y-101700000D01*
X117948804Y-101700000D01*
X117948804Y-101605888D01*
X117933484Y-101450340D01*
X117872939Y-101250749D01*
X117774627Y-101066821D01*
X117774623Y-101066814D01*
X117642311Y-100905592D01*
X117481089Y-100773280D01*
X117481082Y-100773276D01*
X117297156Y-100674965D01*
X117140004Y-100627293D01*
X117140004Y-100987743D01*
X117120319Y-101054782D01*
X117067515Y-101100537D01*
X116998357Y-101110481D01*
X116982551Y-101107145D01*
X116966330Y-101102600D01*
X116966328Y-101102600D01*
X116852019Y-101102600D01*
X116852017Y-101102600D01*
X116780888Y-101112376D01*
X116711793Y-101102003D01*
X116659274Y-101055921D01*
X116640004Y-100989531D01*
X116640004Y-100627293D01*
X116640003Y-100627293D01*
X116482851Y-100674965D01*
X116298925Y-100773276D01*
X116298918Y-100773280D01*
X116137696Y-100905592D01*
X116005384Y-101066814D01*
X116005380Y-101066821D01*
X115907068Y-101250749D01*
X115846523Y-101450340D01*
X115831204Y-101605888D01*
X115831204Y-101700000D01*
X116230708Y-101700000D01*
X116297747Y-101719685D01*
X116343502Y-101772489D01*
X116352115Y-101798772D01*
X116361847Y-101845606D01*
X116361848Y-101845611D01*
X116371600Y-101864429D01*
X116385504Y-101921480D01*
X116385504Y-101982040D01*
X116378344Y-102023566D01*
X116344950Y-102117526D01*
X116303952Y-102174102D01*
X116238874Y-102199532D01*
X116228110Y-102200000D01*
X115831204Y-102200000D01*
X115831204Y-102294111D01*
X109308800Y-102294111D01*
X109308800Y-102200000D01*
X108909296Y-102200000D01*
X108842257Y-102180315D01*
X108796502Y-102127511D01*
X108787889Y-102101228D01*
X108778157Y-102054393D01*
X108755635Y-102010928D01*
X108742270Y-101942351D01*
X108748891Y-101912361D01*
X108779200Y-101827078D01*
X108795054Y-101782474D01*
X108836053Y-101725898D01*
X108901130Y-101700468D01*
X108911894Y-101700000D01*
X109308800Y-101700000D01*
X109308800Y-101605888D01*
X109293480Y-101450340D01*
X109232935Y-101250749D01*
X109134623Y-101066821D01*
X109134619Y-101066814D01*
X109002307Y-100905592D01*
X108841085Y-100773280D01*
X108841078Y-100773276D01*
X108657152Y-100674965D01*
X108500000Y-100627293D01*
X108500000Y-100987743D01*
X108480315Y-101054782D01*
X108427511Y-101100537D01*
X108358353Y-101110481D01*
X108342547Y-101107145D01*
X108326326Y-101102600D01*
X108326324Y-101102600D01*
X108212015Y-101102600D01*
X108212013Y-101102600D01*
X108140884Y-101112376D01*
X108071789Y-101102003D01*
X108019270Y-101055921D01*
X108000000Y-100989531D01*
X108000000Y-100627293D01*
X107999999Y-100627293D01*
X107842847Y-100674965D01*
X107658921Y-100773276D01*
X107658914Y-100773280D01*
X107497692Y-100905592D01*
X107365380Y-101066814D01*
X107365376Y-101066821D01*
X107267064Y-101250749D01*
X107206519Y-101450340D01*
X107191200Y-101605888D01*
X107191200Y-101700000D01*
X107590704Y-101700000D01*
X107657743Y-101719685D01*
X107703498Y-101772489D01*
X107712111Y-101798772D01*
X107721843Y-101845607D01*
X107721844Y-101845610D01*
X107744364Y-101889072D01*
X107757729Y-101957651D01*
X107751106Y-101987644D01*
X107704946Y-102117525D01*
X107663948Y-102174102D01*
X107598870Y-102199532D01*
X107588106Y-102200000D01*
X107191200Y-102200000D01*
X107191200Y-102294111D01*
X104204008Y-102294111D01*
X104121402Y-102211505D01*
X103927830Y-102075965D01*
X103927828Y-102075964D01*
X103783659Y-102008737D01*
X103713663Y-101976097D01*
X103713659Y-101976096D01*
X103713655Y-101976094D01*
X103485413Y-101914938D01*
X103485403Y-101914936D01*
X103308967Y-101899500D01*
X103308966Y-101899500D01*
X103191034Y-101899500D01*
X103191033Y-101899500D01*
X103014596Y-101914936D01*
X103014586Y-101914938D01*
X102786344Y-101976094D01*
X102786335Y-101976098D01*
X102572171Y-102075964D01*
X102572169Y-102075965D01*
X102378597Y-102211505D01*
X102211506Y-102378597D01*
X102211501Y-102378604D01*
X102075967Y-102572165D01*
X102075965Y-102572169D01*
X101976098Y-102786335D01*
X101976094Y-102786344D01*
X101914938Y-103014586D01*
X101914936Y-103014596D01*
X101894341Y-103249999D01*
X101894341Y-103250000D01*
X100194920Y-103250000D01*
X100209398Y-100273594D01*
X100229409Y-100206654D01*
X100282435Y-100161156D01*
X100333594Y-100150200D01*
X124706203Y-100189798D01*
G37*
%TD.AperFunction*%
%TD*%
M02*
