%TF.GenerationSoftware,KiCad,Pcbnew,7.0.10-1.fc38*%
%TF.CreationDate,2024-02-18T19:40:33+00:00*%
%TF.ProjectId,usbc_power_supply_2,75736263-5f70-46f7-9765-725f73757070,rev?*%
%TF.SameCoordinates,Original*%
%TF.FileFunction,Soldermask,Top*%
%TF.FilePolarity,Negative*%
%FSLAX46Y46*%
G04 Gerber Fmt 4.6, Leading zero omitted, Abs format (unit mm)*
G04 Created by KiCad (PCBNEW 7.0.10-1.fc38) date 2024-02-18 19:40:33*
%MOMM*%
%LPD*%
G01*
G04 APERTURE LIST*
%ADD10R,1.450000X1.150000*%
%ADD11C,1.320800*%
%ADD12R,0.254000X0.812800*%
%ADD13R,2.489200X1.752600*%
%ADD14R,0.762000X1.219200*%
%ADD15R,0.799998X0.755599*%
%ADD16R,1.041400X0.558800*%
%ADD17R,1.005599X1.199998*%
%ADD18R,0.755599X0.799998*%
%ADD19R,0.304800X0.508000*%
%ADD20R,1.295400X0.990600*%
%ADD21O,1.117600X1.701800*%
%ADD22C,0.762000*%
%ADD23R,0.812800X1.193800*%
%ADD24R,0.762000X1.193800*%
%ADD25R,0.711200X1.193800*%
%ADD26C,2.200000*%
%ADD27R,0.800000X0.600000*%
%ADD28R,1.150000X1.450000*%
G04 APERTURE END LIST*
%TO.C,Q1*%
G36*
X122232800Y-114852801D02*
G01*
X121737500Y-114852798D01*
X121737500Y-115513198D01*
X121432700Y-115513198D01*
X121432700Y-114852798D01*
X120937400Y-114852801D01*
X120937400Y-113862201D01*
X122232800Y-113862201D01*
X122232800Y-114852801D01*
G37*
%TD*%
D10*
%TO.C,C3*%
X105540000Y-121650000D03*
X105540000Y-123450000D03*
%TD*%
D11*
%TO.C,J2*%
X118406601Y-122845100D03*
X116406599Y-122845100D03*
%TD*%
D12*
%TO.C,U2*%
X106160000Y-115206000D03*
X105659998Y-115206000D03*
X105159999Y-115206000D03*
X104660000Y-115206000D03*
X104159998Y-115206000D03*
X104159998Y-118000000D03*
X104660000Y-118000000D03*
X105159999Y-118000000D03*
X105659998Y-118000000D03*
X106160000Y-118000000D03*
D13*
X105159999Y-116603000D03*
%TD*%
D14*
%TO.C,U1*%
X118890000Y-116296400D03*
X118890000Y-112943600D03*
%TD*%
D15*
%TO.C,R8*%
X103030000Y-120930000D03*
X103030000Y-122485598D03*
%TD*%
%TO.C,R7*%
X101140000Y-111697799D03*
X101140000Y-110142201D03*
%TD*%
D16*
%TO.C,R6*%
X101290000Y-120840000D03*
X101290000Y-122440200D03*
%TD*%
D15*
%TO.C,R5*%
X103400000Y-110104402D03*
X103400000Y-111660000D03*
%TD*%
%TO.C,R4*%
X105630000Y-110114402D03*
X105630000Y-111670000D03*
%TD*%
D17*
%TO.C,R3*%
X111860000Y-109680000D03*
X110154402Y-109680000D03*
%TD*%
%TO.C,R2*%
X113650000Y-109670000D03*
X115355598Y-109670000D03*
%TD*%
D18*
%TO.C,R1*%
X121082201Y-109990000D03*
X122637799Y-109990000D03*
%TD*%
D19*
%TO.C,Q1*%
X122085099Y-113457500D03*
X121085101Y-113457500D03*
D20*
X121585100Y-114357501D03*
%TD*%
D11*
%TO.C,J3*%
X109526599Y-122875100D03*
X111526601Y-122875100D03*
%TD*%
D21*
%TO.C,J1*%
X108250000Y-101950000D03*
X108250000Y-105750000D03*
X116890004Y-105750000D03*
X116890004Y-101950000D03*
D22*
X116890004Y-101950000D03*
D23*
X109820007Y-105750006D03*
D24*
X111050005Y-105750006D03*
D25*
X112070003Y-105750006D03*
X113070001Y-105750006D03*
D24*
X114089999Y-105750006D03*
D23*
X115319997Y-105750006D03*
%TD*%
D26*
%TO.C,H2*%
X103250000Y-103250000D03*
%TD*%
%TO.C,H1*%
X121750000Y-103250000D03*
%TD*%
D27*
%TO.C,D3*%
X101190000Y-107110000D03*
X101190000Y-108510000D03*
%TD*%
%TO.C,D2*%
X105610000Y-108480000D03*
X105610000Y-107080000D03*
%TD*%
%TO.C,D1*%
X103420000Y-107070000D03*
X103420000Y-108470000D03*
%TD*%
D28*
%TO.C,C2*%
X108460000Y-116520000D03*
X110260000Y-116520000D03*
%TD*%
D10*
%TO.C,C1*%
X123150000Y-121500000D03*
X123150000Y-123300000D03*
%TD*%
M02*
