%TF.GenerationSoftware,KiCad,Pcbnew,7.0.10-1.fc38*%
%TF.CreationDate,2024-02-18T19:40:33+00:00*%
%TF.ProjectId,usbc_power_supply_2,75736263-5f70-46f7-9765-725f73757070,rev?*%
%TF.SameCoordinates,Original*%
%TF.FileFunction,Legend,Top*%
%TF.FilePolarity,Positive*%
%FSLAX46Y46*%
G04 Gerber Fmt 4.6, Leading zero omitted, Abs format (unit mm)*
G04 Created by KiCad (PCBNEW 7.0.10-1.fc38) date 2024-02-18 19:40:33*
%MOMM*%
%LPD*%
G01*
G04 APERTURE LIST*
%ADD10C,0.150000*%
%ADD11C,0.200000*%
%ADD12C,0.254000*%
%ADD13C,0.508000*%
%ADD14C,0.152400*%
%ADD15C,0.100000*%
%ADD16C,0.050000*%
G04 APERTURE END LIST*
D10*
X114906779Y-118858866D02*
X115668684Y-118858866D01*
X116335350Y-118239819D02*
X116525826Y-118239819D01*
X116525826Y-118239819D02*
X116621064Y-118287438D01*
X116621064Y-118287438D02*
X116716302Y-118382676D01*
X116716302Y-118382676D02*
X116763921Y-118573152D01*
X116763921Y-118573152D02*
X116763921Y-118906485D01*
X116763921Y-118906485D02*
X116716302Y-119096961D01*
X116716302Y-119096961D02*
X116621064Y-119192200D01*
X116621064Y-119192200D02*
X116525826Y-119239819D01*
X116525826Y-119239819D02*
X116335350Y-119239819D01*
X116335350Y-119239819D02*
X116240112Y-119192200D01*
X116240112Y-119192200D02*
X116144874Y-119096961D01*
X116144874Y-119096961D02*
X116097255Y-118906485D01*
X116097255Y-118906485D02*
X116097255Y-118573152D01*
X116097255Y-118573152D02*
X116144874Y-118382676D01*
X116144874Y-118382676D02*
X116240112Y-118287438D01*
X116240112Y-118287438D02*
X116335350Y-118239819D01*
X117621064Y-118573152D02*
X117621064Y-119239819D01*
X117192493Y-118573152D02*
X117192493Y-119096961D01*
X117192493Y-119096961D02*
X117240112Y-119192200D01*
X117240112Y-119192200D02*
X117335350Y-119239819D01*
X117335350Y-119239819D02*
X117478207Y-119239819D01*
X117478207Y-119239819D02*
X117573445Y-119192200D01*
X117573445Y-119192200D02*
X117621064Y-119144580D01*
X117954398Y-118573152D02*
X118335350Y-118573152D01*
X118097255Y-118239819D02*
X118097255Y-119096961D01*
X118097255Y-119096961D02*
X118144874Y-119192200D01*
X118144874Y-119192200D02*
X118240112Y-119239819D01*
X118240112Y-119239819D02*
X118335350Y-119239819D01*
X118668684Y-118858866D02*
X119430589Y-118858866D01*
X119049636Y-119239819D02*
X119049636Y-118477914D01*
X107746779Y-118968866D02*
X108508684Y-118968866D01*
X109318207Y-118826009D02*
X109461064Y-118873628D01*
X109461064Y-118873628D02*
X109508683Y-118921247D01*
X109508683Y-118921247D02*
X109556302Y-119016485D01*
X109556302Y-119016485D02*
X109556302Y-119159342D01*
X109556302Y-119159342D02*
X109508683Y-119254580D01*
X109508683Y-119254580D02*
X109461064Y-119302200D01*
X109461064Y-119302200D02*
X109365826Y-119349819D01*
X109365826Y-119349819D02*
X108984874Y-119349819D01*
X108984874Y-119349819D02*
X108984874Y-118349819D01*
X108984874Y-118349819D02*
X109318207Y-118349819D01*
X109318207Y-118349819D02*
X109413445Y-118397438D01*
X109413445Y-118397438D02*
X109461064Y-118445057D01*
X109461064Y-118445057D02*
X109508683Y-118540295D01*
X109508683Y-118540295D02*
X109508683Y-118635533D01*
X109508683Y-118635533D02*
X109461064Y-118730771D01*
X109461064Y-118730771D02*
X109413445Y-118778390D01*
X109413445Y-118778390D02*
X109318207Y-118826009D01*
X109318207Y-118826009D02*
X108984874Y-118826009D01*
X109937255Y-119064104D02*
X110413445Y-119064104D01*
X109842017Y-119349819D02*
X110175350Y-118349819D01*
X110175350Y-118349819D02*
X110508683Y-119349819D01*
X110699160Y-118349819D02*
X111270588Y-118349819D01*
X110984874Y-119349819D02*
X110984874Y-118349819D01*
X111461065Y-118349819D02*
X112032493Y-118349819D01*
X111746779Y-119349819D02*
X111746779Y-118349819D01*
X112365827Y-118968866D02*
X113127732Y-118968866D01*
X112746779Y-119349819D02*
X112746779Y-118587914D01*
D11*
X105763333Y-119936980D02*
X105715714Y-119984600D01*
X105715714Y-119984600D02*
X105572857Y-120032219D01*
X105572857Y-120032219D02*
X105477619Y-120032219D01*
X105477619Y-120032219D02*
X105334762Y-119984600D01*
X105334762Y-119984600D02*
X105239524Y-119889361D01*
X105239524Y-119889361D02*
X105191905Y-119794123D01*
X105191905Y-119794123D02*
X105144286Y-119603647D01*
X105144286Y-119603647D02*
X105144286Y-119460790D01*
X105144286Y-119460790D02*
X105191905Y-119270314D01*
X105191905Y-119270314D02*
X105239524Y-119175076D01*
X105239524Y-119175076D02*
X105334762Y-119079838D01*
X105334762Y-119079838D02*
X105477619Y-119032219D01*
X105477619Y-119032219D02*
X105572857Y-119032219D01*
X105572857Y-119032219D02*
X105715714Y-119079838D01*
X105715714Y-119079838D02*
X105763333Y-119127457D01*
X106096667Y-119032219D02*
X106715714Y-119032219D01*
X106715714Y-119032219D02*
X106382381Y-119413171D01*
X106382381Y-119413171D02*
X106525238Y-119413171D01*
X106525238Y-119413171D02*
X106620476Y-119460790D01*
X106620476Y-119460790D02*
X106668095Y-119508409D01*
X106668095Y-119508409D02*
X106715714Y-119603647D01*
X106715714Y-119603647D02*
X106715714Y-119841742D01*
X106715714Y-119841742D02*
X106668095Y-119936980D01*
X106668095Y-119936980D02*
X106620476Y-119984600D01*
X106620476Y-119984600D02*
X106525238Y-120032219D01*
X106525238Y-120032219D02*
X106239524Y-120032219D01*
X106239524Y-120032219D02*
X106144286Y-119984600D01*
X106144286Y-119984600D02*
X106096667Y-119936980D01*
D10*
X115426666Y-120334819D02*
X115426666Y-121049104D01*
X115426666Y-121049104D02*
X115379047Y-121191961D01*
X115379047Y-121191961D02*
X115283809Y-121287200D01*
X115283809Y-121287200D02*
X115140952Y-121334819D01*
X115140952Y-121334819D02*
X115045714Y-121334819D01*
X115855238Y-120430057D02*
X115902857Y-120382438D01*
X115902857Y-120382438D02*
X115998095Y-120334819D01*
X115998095Y-120334819D02*
X116236190Y-120334819D01*
X116236190Y-120334819D02*
X116331428Y-120382438D01*
X116331428Y-120382438D02*
X116379047Y-120430057D01*
X116379047Y-120430057D02*
X116426666Y-120525295D01*
X116426666Y-120525295D02*
X116426666Y-120620533D01*
X116426666Y-120620533D02*
X116379047Y-120763390D01*
X116379047Y-120763390D02*
X115807619Y-121334819D01*
X115807619Y-121334819D02*
X116426666Y-121334819D01*
X102024819Y-118401904D02*
X102834342Y-118401904D01*
X102834342Y-118401904D02*
X102929580Y-118354285D01*
X102929580Y-118354285D02*
X102977200Y-118306666D01*
X102977200Y-118306666D02*
X103024819Y-118211428D01*
X103024819Y-118211428D02*
X103024819Y-118020952D01*
X103024819Y-118020952D02*
X102977200Y-117925714D01*
X102977200Y-117925714D02*
X102929580Y-117878095D01*
X102929580Y-117878095D02*
X102834342Y-117830476D01*
X102834342Y-117830476D02*
X102024819Y-117830476D01*
X102120057Y-117401904D02*
X102072438Y-117354285D01*
X102072438Y-117354285D02*
X102024819Y-117259047D01*
X102024819Y-117259047D02*
X102024819Y-117020952D01*
X102024819Y-117020952D02*
X102072438Y-116925714D01*
X102072438Y-116925714D02*
X102120057Y-116878095D01*
X102120057Y-116878095D02*
X102215295Y-116830476D01*
X102215295Y-116830476D02*
X102310533Y-116830476D01*
X102310533Y-116830476D02*
X102453390Y-116878095D01*
X102453390Y-116878095D02*
X103024819Y-117449523D01*
X103024819Y-117449523D02*
X103024819Y-116830476D01*
X116424819Y-114381904D02*
X117234342Y-114381904D01*
X117234342Y-114381904D02*
X117329580Y-114334285D01*
X117329580Y-114334285D02*
X117377200Y-114286666D01*
X117377200Y-114286666D02*
X117424819Y-114191428D01*
X117424819Y-114191428D02*
X117424819Y-114000952D01*
X117424819Y-114000952D02*
X117377200Y-113905714D01*
X117377200Y-113905714D02*
X117329580Y-113858095D01*
X117329580Y-113858095D02*
X117234342Y-113810476D01*
X117234342Y-113810476D02*
X116424819Y-113810476D01*
X117424819Y-112810476D02*
X117424819Y-113381904D01*
X117424819Y-113096190D02*
X116424819Y-113096190D01*
X116424819Y-113096190D02*
X116567676Y-113191428D01*
X116567676Y-113191428D02*
X116662914Y-113286666D01*
X116662914Y-113286666D02*
X116710533Y-113381904D01*
X118344819Y-117286999D02*
X118582914Y-117286999D01*
X118487676Y-117525094D02*
X118582914Y-117286999D01*
X118582914Y-117286999D02*
X118487676Y-117048904D01*
X118773390Y-117429856D02*
X118582914Y-117286999D01*
X118582914Y-117286999D02*
X118773390Y-117144142D01*
X118344819Y-117286999D02*
X118582914Y-117286999D01*
X118487676Y-117525094D02*
X118582914Y-117286999D01*
X118582914Y-117286999D02*
X118487676Y-117048904D01*
X118773390Y-117429856D02*
X118582914Y-117286999D01*
X118582914Y-117286999D02*
X118773390Y-117144142D01*
X103584819Y-124144465D02*
X103108628Y-124477798D01*
X103584819Y-124715893D02*
X102584819Y-124715893D01*
X102584819Y-124715893D02*
X102584819Y-124334941D01*
X102584819Y-124334941D02*
X102632438Y-124239703D01*
X102632438Y-124239703D02*
X102680057Y-124192084D01*
X102680057Y-124192084D02*
X102775295Y-124144465D01*
X102775295Y-124144465D02*
X102918152Y-124144465D01*
X102918152Y-124144465D02*
X103013390Y-124192084D01*
X103013390Y-124192084D02*
X103061009Y-124239703D01*
X103061009Y-124239703D02*
X103108628Y-124334941D01*
X103108628Y-124334941D02*
X103108628Y-124715893D01*
X103013390Y-123573036D02*
X102965771Y-123668274D01*
X102965771Y-123668274D02*
X102918152Y-123715893D01*
X102918152Y-123715893D02*
X102822914Y-123763512D01*
X102822914Y-123763512D02*
X102775295Y-123763512D01*
X102775295Y-123763512D02*
X102680057Y-123715893D01*
X102680057Y-123715893D02*
X102632438Y-123668274D01*
X102632438Y-123668274D02*
X102584819Y-123573036D01*
X102584819Y-123573036D02*
X102584819Y-123382560D01*
X102584819Y-123382560D02*
X102632438Y-123287322D01*
X102632438Y-123287322D02*
X102680057Y-123239703D01*
X102680057Y-123239703D02*
X102775295Y-123192084D01*
X102775295Y-123192084D02*
X102822914Y-123192084D01*
X102822914Y-123192084D02*
X102918152Y-123239703D01*
X102918152Y-123239703D02*
X102965771Y-123287322D01*
X102965771Y-123287322D02*
X103013390Y-123382560D01*
X103013390Y-123382560D02*
X103013390Y-123573036D01*
X103013390Y-123573036D02*
X103061009Y-123668274D01*
X103061009Y-123668274D02*
X103108628Y-123715893D01*
X103108628Y-123715893D02*
X103203866Y-123763512D01*
X103203866Y-123763512D02*
X103394342Y-123763512D01*
X103394342Y-123763512D02*
X103489580Y-123715893D01*
X103489580Y-123715893D02*
X103537200Y-123668274D01*
X103537200Y-123668274D02*
X103584819Y-123573036D01*
X103584819Y-123573036D02*
X103584819Y-123382560D01*
X103584819Y-123382560D02*
X103537200Y-123287322D01*
X103537200Y-123287322D02*
X103489580Y-123239703D01*
X103489580Y-123239703D02*
X103394342Y-123192084D01*
X103394342Y-123192084D02*
X103203866Y-123192084D01*
X103203866Y-123192084D02*
X103108628Y-123239703D01*
X103108628Y-123239703D02*
X103061009Y-123287322D01*
X103061009Y-123287322D02*
X103013390Y-123382560D01*
X101664819Y-113576666D02*
X101188628Y-113909999D01*
X101664819Y-114148094D02*
X100664819Y-114148094D01*
X100664819Y-114148094D02*
X100664819Y-113767142D01*
X100664819Y-113767142D02*
X100712438Y-113671904D01*
X100712438Y-113671904D02*
X100760057Y-113624285D01*
X100760057Y-113624285D02*
X100855295Y-113576666D01*
X100855295Y-113576666D02*
X100998152Y-113576666D01*
X100998152Y-113576666D02*
X101093390Y-113624285D01*
X101093390Y-113624285D02*
X101141009Y-113671904D01*
X101141009Y-113671904D02*
X101188628Y-113767142D01*
X101188628Y-113767142D02*
X101188628Y-114148094D01*
X100664819Y-113243332D02*
X100664819Y-112576666D01*
X100664819Y-112576666D02*
X101664819Y-113005237D01*
X101614819Y-124126666D02*
X101138628Y-124459999D01*
X101614819Y-124698094D02*
X100614819Y-124698094D01*
X100614819Y-124698094D02*
X100614819Y-124317142D01*
X100614819Y-124317142D02*
X100662438Y-124221904D01*
X100662438Y-124221904D02*
X100710057Y-124174285D01*
X100710057Y-124174285D02*
X100805295Y-124126666D01*
X100805295Y-124126666D02*
X100948152Y-124126666D01*
X100948152Y-124126666D02*
X101043390Y-124174285D01*
X101043390Y-124174285D02*
X101091009Y-124221904D01*
X101091009Y-124221904D02*
X101138628Y-124317142D01*
X101138628Y-124317142D02*
X101138628Y-124698094D01*
X100614819Y-123269523D02*
X100614819Y-123459999D01*
X100614819Y-123459999D02*
X100662438Y-123555237D01*
X100662438Y-123555237D02*
X100710057Y-123602856D01*
X100710057Y-123602856D02*
X100852914Y-123698094D01*
X100852914Y-123698094D02*
X101043390Y-123745713D01*
X101043390Y-123745713D02*
X101424342Y-123745713D01*
X101424342Y-123745713D02*
X101519580Y-123698094D01*
X101519580Y-123698094D02*
X101567200Y-123650475D01*
X101567200Y-123650475D02*
X101614819Y-123555237D01*
X101614819Y-123555237D02*
X101614819Y-123364761D01*
X101614819Y-123364761D02*
X101567200Y-123269523D01*
X101567200Y-123269523D02*
X101519580Y-123221904D01*
X101519580Y-123221904D02*
X101424342Y-123174285D01*
X101424342Y-123174285D02*
X101186247Y-123174285D01*
X101186247Y-123174285D02*
X101091009Y-123221904D01*
X101091009Y-123221904D02*
X101043390Y-123269523D01*
X101043390Y-123269523D02*
X100995771Y-123364761D01*
X100995771Y-123364761D02*
X100995771Y-123555237D01*
X100995771Y-123555237D02*
X101043390Y-123650475D01*
X101043390Y-123650475D02*
X101091009Y-123698094D01*
X101091009Y-123698094D02*
X101186247Y-123745713D01*
X103824819Y-113486666D02*
X103348628Y-113819999D01*
X103824819Y-114058094D02*
X102824819Y-114058094D01*
X102824819Y-114058094D02*
X102824819Y-113677142D01*
X102824819Y-113677142D02*
X102872438Y-113581904D01*
X102872438Y-113581904D02*
X102920057Y-113534285D01*
X102920057Y-113534285D02*
X103015295Y-113486666D01*
X103015295Y-113486666D02*
X103158152Y-113486666D01*
X103158152Y-113486666D02*
X103253390Y-113534285D01*
X103253390Y-113534285D02*
X103301009Y-113581904D01*
X103301009Y-113581904D02*
X103348628Y-113677142D01*
X103348628Y-113677142D02*
X103348628Y-114058094D01*
X102824819Y-112581904D02*
X102824819Y-113058094D01*
X102824819Y-113058094D02*
X103301009Y-113105713D01*
X103301009Y-113105713D02*
X103253390Y-113058094D01*
X103253390Y-113058094D02*
X103205771Y-112962856D01*
X103205771Y-112962856D02*
X103205771Y-112724761D01*
X103205771Y-112724761D02*
X103253390Y-112629523D01*
X103253390Y-112629523D02*
X103301009Y-112581904D01*
X103301009Y-112581904D02*
X103396247Y-112534285D01*
X103396247Y-112534285D02*
X103634342Y-112534285D01*
X103634342Y-112534285D02*
X103729580Y-112581904D01*
X103729580Y-112581904D02*
X103777200Y-112629523D01*
X103777200Y-112629523D02*
X103824819Y-112724761D01*
X103824819Y-112724761D02*
X103824819Y-112962856D01*
X103824819Y-112962856D02*
X103777200Y-113058094D01*
X103777200Y-113058094D02*
X103729580Y-113105713D01*
X106034819Y-113516666D02*
X105558628Y-113849999D01*
X106034819Y-114088094D02*
X105034819Y-114088094D01*
X105034819Y-114088094D02*
X105034819Y-113707142D01*
X105034819Y-113707142D02*
X105082438Y-113611904D01*
X105082438Y-113611904D02*
X105130057Y-113564285D01*
X105130057Y-113564285D02*
X105225295Y-113516666D01*
X105225295Y-113516666D02*
X105368152Y-113516666D01*
X105368152Y-113516666D02*
X105463390Y-113564285D01*
X105463390Y-113564285D02*
X105511009Y-113611904D01*
X105511009Y-113611904D02*
X105558628Y-113707142D01*
X105558628Y-113707142D02*
X105558628Y-114088094D01*
X105368152Y-112659523D02*
X106034819Y-112659523D01*
X104987200Y-112897618D02*
X105701485Y-113135713D01*
X105701485Y-113135713D02*
X105701485Y-112516666D01*
X111713333Y-111764819D02*
X111380000Y-111288628D01*
X111141905Y-111764819D02*
X111141905Y-110764819D01*
X111141905Y-110764819D02*
X111522857Y-110764819D01*
X111522857Y-110764819D02*
X111618095Y-110812438D01*
X111618095Y-110812438D02*
X111665714Y-110860057D01*
X111665714Y-110860057D02*
X111713333Y-110955295D01*
X111713333Y-110955295D02*
X111713333Y-111098152D01*
X111713333Y-111098152D02*
X111665714Y-111193390D01*
X111665714Y-111193390D02*
X111618095Y-111241009D01*
X111618095Y-111241009D02*
X111522857Y-111288628D01*
X111522857Y-111288628D02*
X111141905Y-111288628D01*
X112046667Y-110764819D02*
X112665714Y-110764819D01*
X112665714Y-110764819D02*
X112332381Y-111145771D01*
X112332381Y-111145771D02*
X112475238Y-111145771D01*
X112475238Y-111145771D02*
X112570476Y-111193390D01*
X112570476Y-111193390D02*
X112618095Y-111241009D01*
X112618095Y-111241009D02*
X112665714Y-111336247D01*
X112665714Y-111336247D02*
X112665714Y-111574342D01*
X112665714Y-111574342D02*
X112618095Y-111669580D01*
X112618095Y-111669580D02*
X112570476Y-111717200D01*
X112570476Y-111717200D02*
X112475238Y-111764819D01*
X112475238Y-111764819D02*
X112189524Y-111764819D01*
X112189524Y-111764819D02*
X112094286Y-111717200D01*
X112094286Y-111717200D02*
X112046667Y-111669580D01*
X115603333Y-111774819D02*
X115270000Y-111298628D01*
X115031905Y-111774819D02*
X115031905Y-110774819D01*
X115031905Y-110774819D02*
X115412857Y-110774819D01*
X115412857Y-110774819D02*
X115508095Y-110822438D01*
X115508095Y-110822438D02*
X115555714Y-110870057D01*
X115555714Y-110870057D02*
X115603333Y-110965295D01*
X115603333Y-110965295D02*
X115603333Y-111108152D01*
X115603333Y-111108152D02*
X115555714Y-111203390D01*
X115555714Y-111203390D02*
X115508095Y-111251009D01*
X115508095Y-111251009D02*
X115412857Y-111298628D01*
X115412857Y-111298628D02*
X115031905Y-111298628D01*
X115984286Y-110870057D02*
X116031905Y-110822438D01*
X116031905Y-110822438D02*
X116127143Y-110774819D01*
X116127143Y-110774819D02*
X116365238Y-110774819D01*
X116365238Y-110774819D02*
X116460476Y-110822438D01*
X116460476Y-110822438D02*
X116508095Y-110870057D01*
X116508095Y-110870057D02*
X116555714Y-110965295D01*
X116555714Y-110965295D02*
X116555714Y-111060533D01*
X116555714Y-111060533D02*
X116508095Y-111203390D01*
X116508095Y-111203390D02*
X115936667Y-111774819D01*
X115936667Y-111774819D02*
X116555714Y-111774819D01*
X121783333Y-109114819D02*
X121450000Y-108638628D01*
X121211905Y-109114819D02*
X121211905Y-108114819D01*
X121211905Y-108114819D02*
X121592857Y-108114819D01*
X121592857Y-108114819D02*
X121688095Y-108162438D01*
X121688095Y-108162438D02*
X121735714Y-108210057D01*
X121735714Y-108210057D02*
X121783333Y-108305295D01*
X121783333Y-108305295D02*
X121783333Y-108448152D01*
X121783333Y-108448152D02*
X121735714Y-108543390D01*
X121735714Y-108543390D02*
X121688095Y-108591009D01*
X121688095Y-108591009D02*
X121592857Y-108638628D01*
X121592857Y-108638628D02*
X121211905Y-108638628D01*
X122735714Y-109114819D02*
X122164286Y-109114819D01*
X122450000Y-109114819D02*
X122450000Y-108114819D01*
X122450000Y-108114819D02*
X122354762Y-108257676D01*
X122354762Y-108257676D02*
X122259524Y-108352914D01*
X122259524Y-108352914D02*
X122164286Y-108400533D01*
X123970057Y-115005238D02*
X123922438Y-115100476D01*
X123922438Y-115100476D02*
X123827200Y-115195714D01*
X123827200Y-115195714D02*
X123684342Y-115338571D01*
X123684342Y-115338571D02*
X123636723Y-115433809D01*
X123636723Y-115433809D02*
X123636723Y-115529047D01*
X123874819Y-115481428D02*
X123827200Y-115576666D01*
X123827200Y-115576666D02*
X123731961Y-115671904D01*
X123731961Y-115671904D02*
X123541485Y-115719523D01*
X123541485Y-115719523D02*
X123208152Y-115719523D01*
X123208152Y-115719523D02*
X123017676Y-115671904D01*
X123017676Y-115671904D02*
X122922438Y-115576666D01*
X122922438Y-115576666D02*
X122874819Y-115481428D01*
X122874819Y-115481428D02*
X122874819Y-115290952D01*
X122874819Y-115290952D02*
X122922438Y-115195714D01*
X122922438Y-115195714D02*
X123017676Y-115100476D01*
X123017676Y-115100476D02*
X123208152Y-115052857D01*
X123208152Y-115052857D02*
X123541485Y-115052857D01*
X123541485Y-115052857D02*
X123731961Y-115100476D01*
X123731961Y-115100476D02*
X123827200Y-115195714D01*
X123827200Y-115195714D02*
X123874819Y-115290952D01*
X123874819Y-115290952D02*
X123874819Y-115481428D01*
X123874819Y-114100476D02*
X123874819Y-114671904D01*
X123874819Y-114386190D02*
X122874819Y-114386190D01*
X122874819Y-114386190D02*
X123017676Y-114481428D01*
X123017676Y-114481428D02*
X123112914Y-114576666D01*
X123112914Y-114576666D02*
X123160533Y-114671904D01*
X108376666Y-120334819D02*
X108376666Y-121049104D01*
X108376666Y-121049104D02*
X108329047Y-121191961D01*
X108329047Y-121191961D02*
X108233809Y-121287200D01*
X108233809Y-121287200D02*
X108090952Y-121334819D01*
X108090952Y-121334819D02*
X107995714Y-121334819D01*
X108757619Y-120334819D02*
X109376666Y-120334819D01*
X109376666Y-120334819D02*
X109043333Y-120715771D01*
X109043333Y-120715771D02*
X109186190Y-120715771D01*
X109186190Y-120715771D02*
X109281428Y-120763390D01*
X109281428Y-120763390D02*
X109329047Y-120811009D01*
X109329047Y-120811009D02*
X109376666Y-120906247D01*
X109376666Y-120906247D02*
X109376666Y-121144342D01*
X109376666Y-121144342D02*
X109329047Y-121239580D01*
X109329047Y-121239580D02*
X109281428Y-121287200D01*
X109281428Y-121287200D02*
X109186190Y-121334819D01*
X109186190Y-121334819D02*
X108900476Y-121334819D01*
X108900476Y-121334819D02*
X108805238Y-121287200D01*
X108805238Y-121287200D02*
X108757619Y-121239580D01*
X112026666Y-101114819D02*
X112026666Y-101829104D01*
X112026666Y-101829104D02*
X111979047Y-101971961D01*
X111979047Y-101971961D02*
X111883809Y-102067200D01*
X111883809Y-102067200D02*
X111740952Y-102114819D01*
X111740952Y-102114819D02*
X111645714Y-102114819D01*
X113026666Y-102114819D02*
X112455238Y-102114819D01*
X112740952Y-102114819D02*
X112740952Y-101114819D01*
X112740952Y-101114819D02*
X112645714Y-101257676D01*
X112645714Y-101257676D02*
X112550476Y-101352914D01*
X112550476Y-101352914D02*
X112455238Y-101400533D01*
X100695180Y-104841905D02*
X101695180Y-104841905D01*
X101695180Y-104841905D02*
X101695180Y-105080000D01*
X101695180Y-105080000D02*
X101647561Y-105222857D01*
X101647561Y-105222857D02*
X101552323Y-105318095D01*
X101552323Y-105318095D02*
X101457085Y-105365714D01*
X101457085Y-105365714D02*
X101266609Y-105413333D01*
X101266609Y-105413333D02*
X101123752Y-105413333D01*
X101123752Y-105413333D02*
X100933276Y-105365714D01*
X100933276Y-105365714D02*
X100838038Y-105318095D01*
X100838038Y-105318095D02*
X100742800Y-105222857D01*
X100742800Y-105222857D02*
X100695180Y-105080000D01*
X100695180Y-105080000D02*
X100695180Y-104841905D01*
X101695180Y-105746667D02*
X101695180Y-106365714D01*
X101695180Y-106365714D02*
X101314228Y-106032381D01*
X101314228Y-106032381D02*
X101314228Y-106175238D01*
X101314228Y-106175238D02*
X101266609Y-106270476D01*
X101266609Y-106270476D02*
X101218990Y-106318095D01*
X101218990Y-106318095D02*
X101123752Y-106365714D01*
X101123752Y-106365714D02*
X100885657Y-106365714D01*
X100885657Y-106365714D02*
X100790419Y-106318095D01*
X100790419Y-106318095D02*
X100742800Y-106270476D01*
X100742800Y-106270476D02*
X100695180Y-106175238D01*
X100695180Y-106175238D02*
X100695180Y-105889524D01*
X100695180Y-105889524D02*
X100742800Y-105794286D01*
X100742800Y-105794286D02*
X100790419Y-105746667D01*
X105155180Y-104841905D02*
X106155180Y-104841905D01*
X106155180Y-104841905D02*
X106155180Y-105080000D01*
X106155180Y-105080000D02*
X106107561Y-105222857D01*
X106107561Y-105222857D02*
X106012323Y-105318095D01*
X106012323Y-105318095D02*
X105917085Y-105365714D01*
X105917085Y-105365714D02*
X105726609Y-105413333D01*
X105726609Y-105413333D02*
X105583752Y-105413333D01*
X105583752Y-105413333D02*
X105393276Y-105365714D01*
X105393276Y-105365714D02*
X105298038Y-105318095D01*
X105298038Y-105318095D02*
X105202800Y-105222857D01*
X105202800Y-105222857D02*
X105155180Y-105080000D01*
X105155180Y-105080000D02*
X105155180Y-104841905D01*
X106059942Y-105794286D02*
X106107561Y-105841905D01*
X106107561Y-105841905D02*
X106155180Y-105937143D01*
X106155180Y-105937143D02*
X106155180Y-106175238D01*
X106155180Y-106175238D02*
X106107561Y-106270476D01*
X106107561Y-106270476D02*
X106059942Y-106318095D01*
X106059942Y-106318095D02*
X105964704Y-106365714D01*
X105964704Y-106365714D02*
X105869466Y-106365714D01*
X105869466Y-106365714D02*
X105726609Y-106318095D01*
X105726609Y-106318095D02*
X105155180Y-105746667D01*
X105155180Y-105746667D02*
X105155180Y-106365714D01*
X102855180Y-104841905D02*
X103855180Y-104841905D01*
X103855180Y-104841905D02*
X103855180Y-105080000D01*
X103855180Y-105080000D02*
X103807561Y-105222857D01*
X103807561Y-105222857D02*
X103712323Y-105318095D01*
X103712323Y-105318095D02*
X103617085Y-105365714D01*
X103617085Y-105365714D02*
X103426609Y-105413333D01*
X103426609Y-105413333D02*
X103283752Y-105413333D01*
X103283752Y-105413333D02*
X103093276Y-105365714D01*
X103093276Y-105365714D02*
X102998038Y-105318095D01*
X102998038Y-105318095D02*
X102902800Y-105222857D01*
X102902800Y-105222857D02*
X102855180Y-105080000D01*
X102855180Y-105080000D02*
X102855180Y-104841905D01*
X102855180Y-106365714D02*
X102855180Y-105794286D01*
X102855180Y-106080000D02*
X103855180Y-106080000D01*
X103855180Y-106080000D02*
X103712323Y-105984762D01*
X103712323Y-105984762D02*
X103617085Y-105889524D01*
X103617085Y-105889524D02*
X103569466Y-105794286D01*
D12*
X110298333Y-114473365D02*
X110237857Y-114533842D01*
X110237857Y-114533842D02*
X110056428Y-114594318D01*
X110056428Y-114594318D02*
X109935476Y-114594318D01*
X109935476Y-114594318D02*
X109754047Y-114533842D01*
X109754047Y-114533842D02*
X109633095Y-114412889D01*
X109633095Y-114412889D02*
X109572618Y-114291937D01*
X109572618Y-114291937D02*
X109512142Y-114050032D01*
X109512142Y-114050032D02*
X109512142Y-113868603D01*
X109512142Y-113868603D02*
X109572618Y-113626699D01*
X109572618Y-113626699D02*
X109633095Y-113505746D01*
X109633095Y-113505746D02*
X109754047Y-113384794D01*
X109754047Y-113384794D02*
X109935476Y-113324318D01*
X109935476Y-113324318D02*
X110056428Y-113324318D01*
X110056428Y-113324318D02*
X110237857Y-113384794D01*
X110237857Y-113384794D02*
X110298333Y-113445270D01*
X110782142Y-113445270D02*
X110842618Y-113384794D01*
X110842618Y-113384794D02*
X110963571Y-113324318D01*
X110963571Y-113324318D02*
X111265952Y-113324318D01*
X111265952Y-113324318D02*
X111386904Y-113384794D01*
X111386904Y-113384794D02*
X111447380Y-113445270D01*
X111447380Y-113445270D02*
X111507857Y-113566222D01*
X111507857Y-113566222D02*
X111507857Y-113687175D01*
X111507857Y-113687175D02*
X111447380Y-113868603D01*
X111447380Y-113868603D02*
X110721666Y-114594318D01*
X110721666Y-114594318D02*
X111507857Y-114594318D01*
X122888333Y-119793365D02*
X122827857Y-119853842D01*
X122827857Y-119853842D02*
X122646428Y-119914318D01*
X122646428Y-119914318D02*
X122525476Y-119914318D01*
X122525476Y-119914318D02*
X122344047Y-119853842D01*
X122344047Y-119853842D02*
X122223095Y-119732889D01*
X122223095Y-119732889D02*
X122162618Y-119611937D01*
X122162618Y-119611937D02*
X122102142Y-119370032D01*
X122102142Y-119370032D02*
X122102142Y-119188603D01*
X122102142Y-119188603D02*
X122162618Y-118946699D01*
X122162618Y-118946699D02*
X122223095Y-118825746D01*
X122223095Y-118825746D02*
X122344047Y-118704794D01*
X122344047Y-118704794D02*
X122525476Y-118644318D01*
X122525476Y-118644318D02*
X122646428Y-118644318D01*
X122646428Y-118644318D02*
X122827857Y-118704794D01*
X122827857Y-118704794D02*
X122888333Y-118765270D01*
X124097857Y-119914318D02*
X123372142Y-119914318D01*
X123734999Y-119914318D02*
X123734999Y-118644318D01*
X123734999Y-118644318D02*
X123614047Y-118825746D01*
X123614047Y-118825746D02*
X123493095Y-118946699D01*
X123493095Y-118946699D02*
X123372142Y-119007175D01*
D11*
%TO.C,C3*%
X105590000Y-120800000D02*
G75*
G03*
X105490000Y-120800000I-50000J0D01*
G01*
X105490000Y-120800000D02*
G75*
G03*
X105590000Y-120800000I50000J0D01*
G01*
D13*
%TO.C,J2*%
X121496000Y-122845100D02*
G75*
G03*
X120734000Y-122845100I-381000J0D01*
G01*
X120734000Y-122845100D02*
G75*
G03*
X121496000Y-122845100I381000J0D01*
G01*
D14*
X114333200Y-124667901D02*
X120480000Y-124667901D01*
X120480000Y-124667901D02*
X120480000Y-119918101D01*
X120480000Y-119918101D02*
X114333200Y-119918101D01*
X114333200Y-119918101D02*
X114333200Y-124667901D01*
%TO.C,U2*%
X106233827Y-114466860D02*
G75*
G03*
X106086171Y-114466860I-73828J18860D01*
G01*
X103534399Y-114977400D02*
X103534399Y-118228600D01*
X106785599Y-118228600D02*
X106785599Y-114977400D01*
%TO.C,U1*%
X119918700Y-116169400D02*
X119918700Y-113070600D01*
X119918700Y-113070600D02*
X119603740Y-113070600D01*
X117861300Y-113070600D02*
X117861300Y-116169400D01*
X117861300Y-116169400D02*
X118176260Y-116169400D01*
X119603740Y-116169400D02*
X119918700Y-116169400D01*
X118176260Y-113070600D02*
X117861300Y-113070600D01*
%TO.C,R8*%
X102503001Y-121615350D02*
X102503001Y-121800248D01*
X103556999Y-121800248D02*
X103556999Y-121615350D01*
%TO.C,R7*%
X101666999Y-111012449D02*
X101666999Y-110827551D01*
X100613001Y-110827551D02*
X100613001Y-111012449D01*
%TO.C,R6*%
X100642300Y-121426950D02*
X100642300Y-121853250D01*
X101937700Y-121853250D02*
X101937700Y-121426950D01*
%TO.C,R5*%
X102873001Y-110789752D02*
X102873001Y-110974650D01*
X103926999Y-110974650D02*
X103926999Y-110789752D01*
%TO.C,R4*%
X105103001Y-110799752D02*
X105103001Y-110984650D01*
X106156999Y-110984650D02*
X106156999Y-110799752D01*
%TO.C,R1*%
X121767551Y-110516999D02*
X121952449Y-110516999D01*
X121952449Y-109463001D02*
X121767551Y-109463001D01*
%TO.C,Q1*%
X122499500Y-115525898D02*
X122499500Y-115051765D01*
X122069998Y-115525898D02*
X122499500Y-115525898D01*
X120670700Y-115525898D02*
X121100202Y-115525898D01*
X120670700Y-115051765D02*
X120670700Y-115525898D01*
D13*
X124658500Y-113457500D02*
G75*
G03*
X123896500Y-113457500I-381000J0D01*
G01*
X123896500Y-113457500D02*
G75*
G03*
X124658500Y-113457500I381000J0D01*
G01*
D14*
%TO.C,J3*%
X107453200Y-119948101D02*
X107453200Y-124697901D01*
X113600000Y-119948101D02*
X107453200Y-119948101D01*
X113600000Y-124697901D02*
X113600000Y-119948101D01*
X107453200Y-124697901D02*
X113600000Y-124697901D01*
D13*
X114616000Y-122875100D02*
G75*
G03*
X113854000Y-122875100I-381000J0D01*
G01*
X113854000Y-122875100D02*
G75*
G03*
X114616000Y-122875100I381000J0D01*
G01*
D14*
%TO.C,J1*%
X115809137Y-106437000D02*
X116187653Y-106437000D01*
X117167402Y-105652372D02*
X117167402Y-99223400D01*
X108952351Y-106437000D02*
X109330867Y-106437000D01*
X107972602Y-99223400D02*
X107972602Y-105652372D01*
X117167402Y-99223400D02*
X107972602Y-99223400D01*
D13*
X119326402Y-106310000D02*
G75*
G03*
X118564402Y-106310000I-381000J0D01*
G01*
X118564402Y-106310000D02*
G75*
G03*
X119326402Y-106310000I381000J0D01*
G01*
D15*
%TO.C,D3*%
X101790000Y-106710000D02*
X100590000Y-106710000D01*
X100590000Y-106710000D02*
X100590000Y-108910000D01*
X100590000Y-108910000D02*
X101790000Y-108910000D01*
X101790000Y-108910000D02*
X101790000Y-106710000D01*
D16*
X101565000Y-108135000D02*
X100840000Y-108135000D01*
D15*
X101190000Y-108110000D02*
X101465000Y-107560000D01*
X100915000Y-107560000D02*
X101190000Y-108110000D01*
X101465000Y-107560000D02*
X100915000Y-107560000D01*
%TO.C,D2*%
X105885000Y-107530000D02*
X105335000Y-107530000D01*
X105335000Y-107530000D02*
X105610000Y-108080000D01*
X105610000Y-108080000D02*
X105885000Y-107530000D01*
D16*
X105985000Y-108105000D02*
X105260000Y-108105000D01*
D15*
X106210000Y-106680000D02*
X105010000Y-106680000D01*
X105010000Y-106680000D02*
X105010000Y-108880000D01*
X105010000Y-108880000D02*
X106210000Y-108880000D01*
X106210000Y-108880000D02*
X106210000Y-106680000D01*
%TO.C,D1*%
X104020000Y-106670000D02*
X102820000Y-106670000D01*
X102820000Y-106670000D02*
X102820000Y-108870000D01*
X102820000Y-108870000D02*
X104020000Y-108870000D01*
X104020000Y-108870000D02*
X104020000Y-106670000D01*
D16*
X103795000Y-108095000D02*
X103070000Y-108095000D01*
D15*
X103420000Y-108070000D02*
X103695000Y-107520000D01*
X103145000Y-107520000D02*
X103420000Y-108070000D01*
X103695000Y-107520000D02*
X103145000Y-107520000D01*
D11*
%TO.C,C2*%
X107660000Y-116520000D02*
G75*
G03*
X107560000Y-116520000I-50000J0D01*
G01*
X107560000Y-116520000D02*
G75*
G03*
X107660000Y-116520000I50000J0D01*
G01*
%TO.C,C1*%
X123200000Y-120650000D02*
G75*
G03*
X123100000Y-120650000I-50000J0D01*
G01*
X123100000Y-120650000D02*
G75*
G03*
X123200000Y-120650000I50000J0D01*
G01*
%TD*%
M02*
