M48
; DRILL file {KiCad 7.0.10-1.fc38} date Sun 18 Feb 2024 19:40:30 GMT
; FORMAT={-:-/ absolute / inch / decimal}
; #@! TF.CreationDate,2024-02-18T19:40:30+00:00
; #@! TF.GenerationSoftware,Kicad,Pcbnew,7.0.10-1.fc38
; #@! TF.FileFunction,Plated,1,2,PTH
FMAT,2
INCH
; #@! TA.AperFunction,Plated,PTH,ComponentDrill
T1C0.0010
; #@! TA.AperFunction,Plated,PTH,ViaDrill
T2C0.0157
; #@! TA.AperFunction,Plated,PTH,ComponentDrill
T3C0.0200
; #@! TA.AperFunction,Plated,PTH,ComponentDrill
T4C0.0320
%
G90
G05
T1
X4.2618Y-4.0138
X4.2618Y-4.1634
X4.602Y-4.0138
X4.602Y-4.1634
T2
X3.9823Y-4.4618
X3.987Y-4.874
X4.0268Y-4.5535
X4.0441Y-4.8673
X4.0642Y-4.4965
X4.1039Y-4.6988
X4.2283Y-4.485
X4.2736Y-4.7646
X4.324Y-4.0988
X4.3559Y-4.3961
X4.4303Y-4.0831
X4.4563Y-4.5524
X4.5051Y-4.3937
X4.5398Y-4.0949
X4.5835Y-4.6689
X4.8728Y-4.2835
T3
X4.602Y-4.0138
T4
X4.3121Y-4.8376
X4.3908Y-4.8376
X4.5829Y-4.8364
X4.6617Y-4.8364
M30
